<?xml version="1.0" standalone="no"?>
<!DOCTYPE svg PUBLIC "-//W3C//DTD SVG 20010904//EN"
 "http://www.w3.org/TR/2001/REC-SVG-20010904/DTD/svg10.dtd">
<svg version="1.0" xmlns="http://www.w3.org/2000/svg"
 width="1024.000000pt" height="1024.000000pt" viewBox="0 0 1024.000000 1024.000000"
 preserveAspectRatio="xMidYMid meet">

<g transform="translate(0.000000,1024.000000) scale(0.100000,-0.100000)"
fill="#000000" stroke="none">
<path d="M0 5120 l0 -5120 5120 0 5120 0 0 5120 0 5120 -5120 0 -5120 0 0
-5120z m5385 3820 c327 -17 943 -132 919 -171 -8 -13 -2364 -11 -2364 2 0 33
282 104 576 144 221 31 576 41 869 25z m-3414 -171 c22 -43 -23 -88 -78 -77
-9 2 -22 15 -27 30 -8 22 -6 32 9 48 25 28 80 27 96 -1z m231 4 c24 -22 23
-49 -4 -67 -46 -33 -98 -12 -98 38 0 41 67 61 102 29z m239 7 c12 -7 19 -21
19 -40 0 -32 -22 -50 -62 -50 -46 0 -64 46 -31 82 18 20 45 23 74 8z m-734
-22 c23 -26 6 -52 -36 -56 -28 -3 -31 -1 -31 25 0 50 35 66 67 31z m5144 -159
c96 -37 153 -73 214 -136 67 -67 121 -173 135 -263 5 -37 10 -263 10 -523 0
-403 -2 -458 -15 -464 -9 -3 -19 -2 -23 2 -4 3 -8 209 -9 457 -2 493 -3 504
-65 620 -33 62 -137 171 -190 200 -18 9 -58 25 -88 35 -52 17 -144 18 -1670
18 -1510 0 -1619 -1 -1679 -18 -176 -48 -290 -162 -337 -334 -8 -32 -18 -124
-21 -205 -6 -144 -7 -148 -28 -148 -20 0 -23 7 -29 61 -11 110 -7 272 9 333
38 146 144 278 268 337 130 61 42 58 1822 56 l1630 -2 66 -26z m-4401 -94 c21
-22 22 -28 10 -49 -18 -34 -62 -49 -89 -30 -25 18 -27 51 -5 82 20 29 55 28
84 -3z m-740 -5 c25 -25 25 -34 -2 -60 -26 -24 -45 -25 -70 -3 -22 20 -23 41
-1 65 21 24 48 23 73 -2z m245 4 c24 -25 15 -66 -18 -82 -24 -12 -31 -11 -53
2 -29 20 -31 49 -4 76 24 24 53 26 75 4z m250 -4 c24 -27 8 -63 -33 -78 -56
-19 -95 36 -55 80 21 24 65 23 88 -2z m2963 -37 c33 -28 37 -64 11 -96 -16
-22 -28 -27 -52 -25 -64 6 -76 95 -17 125 32 16 34 16 58 -4z m-2229 -220 c-5
-21 -9 -67 -9 -103 -2 -100 -6 -106 -59 -71 -24 16 -61 37 -82 47 -22 9 -39
20 -39 24 0 18 162 140 186 140 9 0 9 -11 3 -37z m3867 -10 c53 -28 121 -105
134 -152 5 -20 10 -65 10 -101 l0 -65 -59 3 c-47 3 -72 -2 -122 -23 -35 -15
-103 -36 -151 -46 -120 -25 -176 -56 -232 -126 -25 -32 -51 -72 -58 -89 l-11
-32 -56 44 c-31 24 -106 66 -166 93 -359 160 -655 221 -1005 207 -201 -9 -332
-29 -501 -77 -270 -76 -494 -185 -744 -362 -116 -83 -306 -271 -415 -410 -41
-53 -80 -96 -86 -97 -18 0 -24 52 -24 210 l0 147 40 12 c55 16 95 53 126 117
29 60 28 106 -2 168 -24 46 -83 104 -121 117 -41 13 -47 41 -41 198 6 131 16
159 78 220 75 73 -47 68 1749 67 l1616 -1 41 -22z m714 -112 c74 -58 184 -153
243 -211 l109 -104 -59 -17 c-81 -23 -113 -41 -181 -103 -93 -87 -142 -196
-161 -360 -6 -49 -13 -91 -15 -94 -3 -2 -28 -1 -55 3 l-51 7 -1 436 c0 241 -3
470 -7 509 l-8 73 26 -17 c14 -9 86 -64 160 -122z m-4777 -129 c39 -18 88 -53
125 -89 49 -48 64 -70 77 -116 9 -31 15 -67 13 -79 -3 -23 -2 -23 147 -28 160
-5 186 -12 233 -63 21 -22 22 -28 12 -66 -8 -29 -17 -42 -33 -45 -49 -10
-1300 -14 -1328 -4 -63 22 -38 115 41 156 36 18 61 22 131 22 l86 0 5 63 c11
132 108 243 242 278 17 5 66 7 108 5 60 -3 92 -11 141 -34z m2622 -192 c114
-11 393 -75 500 -115 116 -44 241 -103 325 -154 47 -28 93 -51 103 -51 21 0
22 7 -30 -155 -20 -60 -45 -155 -57 -210 l-21 -100 -890 -5 -890 -5 -67 -44
c-106 -70 -148 -143 -148 -255 0 -76 99 -488 135 -562 45 -91 163 -184 270
-212 50 -14 1407 -18 1450 -5 51 15 79 91 155 418 18 77 48 203 67 280 19 77
52 212 73 300 21 88 52 204 69 259 17 54 31 105 31 112 0 8 3 14 6 14 10 0
136 -101 192 -154 113 -108 296 -375 400 -586 l67 -135 0 -120 c0 -66 -4 -151
-9 -190 -8 -65 -10 -68 -18 -37 -16 61 -58 33 -93 -64 -14 -38 -25 -79 -25
-91 0 -13 -4 -23 -9 -23 -5 0 -14 -13 -21 -30 -7 -16 -18 -31 -24 -31 -6 -1
-184 -5 -396 -9 -367 -7 -476 -16 -505 -40 -9 -7 -41 -8 -99 -2 -48 4 -153 4
-234 -1 -144 -8 -461 -4 -593 9 l-66 7 -7 -46 c-4 -26 -10 -46 -14 -46 -32 5
-52 -3 -52 -21 0 -28 -31 -26 -96 6 -109 53 -230 55 -334 5 -24 -12 -40 -15
-37 -8 2 7 13 13 25 15 12 2 22 10 22 18 0 8 7 14 15 14 8 0 12 6 9 15 -4 9 2
16 18 19 33 8 351 26 357 21 2 -3 -3 -5 -12 -5 -10 0 -17 -8 -17 -20 0 -16 7
-20 35 -20 37 0 47 19 22 44 -21 21 -497 36 -1153 36 l-612 0 -5 -27 c-3 -15
-5 -100 -4 -188 l0 -160 -35 -3 -36 -3 -7 128 c-22 360 54 757 203 1065 154
318 415 618 705 811 256 170 613 303 907 336 108 12 328 13 455 1z m1583 -46
c12 -14 22 -34 22 -45 0 -26 -37 -61 -58 -55 -89 24 -137 28 -259 23 -124 -5
-132 -4 -123 12 13 25 76 41 164 41 66 0 84 4 133 30 63 34 85 32 121 -6z
m1046 -89 c96 -25 174 -96 221 -198 32 -69 41 -195 27 -383 -11 -151 -20 -179
-56 -162 l-25 11 6 196 c7 230 -1 284 -52 353 -52 71 -104 101 -182 106 -112
7 -187 -39 -237 -147 -20 -43 -21 -61 -20 -283 l2 -238 -29 0 c-33 0 -35 5
-43 130 -19 286 -19 298 -1 365 35 129 118 223 223 251 63 17 97 17 166 -1z
m-1134 -129 l85 1 -1 -226 c-1 -273 -1 -271 -16 -270 -7 0 -35 29 -63 65 -73
95 -178 201 -272 273 -46 35 -83 69 -83 76 0 13 68 80 90 88 8 3 51 3 95 -1
44 -3 118 -6 165 -6z m1127 -102 c44 -33 62 -70 65 -135 l3 -54 -143 -3 -144
-3 7 43 c12 80 24 113 55 150 45 54 88 55 157 2z m-5472 -74 l420 0 -7 -192
c-7 -168 0 -426 17 -703 6 -85 30 -216 46 -250 7 -15 5 -50 -6 -115 -9 -52
-20 -126 -26 -165 -11 -75 -9 -506 2 -500 8 5 19 -74 18 -124 -1 -31 -2 -33
-8 -11 -4 14 -15 26 -24 28 -20 4 -51 -24 -42 -38 3 -6 -5 -10 -19 -10 -16 0
-27 -7 -31 -20 -3 -11 -11 -20 -16 -20 -5 0 -9 -7 -9 -15 0 -8 -7 -15 -15 -15
-11 0 -15 -11 -15 -42 0 -31 -3 -39 -10 -28 -6 9 -10 233 -10 559 0 300 -2
547 -5 549 -2 3 -68 7 -145 10 l-140 5 0 228 c0 260 11 233 -105 244 -112 11
-147 32 -233 143 -53 67 -62 68 -122 21 -28 -22 -72 -67 -97 -99 -41 -54 -50
-60 -92 -65 -25 -4 -59 -9 -74 -12 l-28 -5 1 -141 c1 -78 1 -178 0 -222 l0
-80 -140 -3 c-113 -2 -140 0 -140 11 0 24 80 287 104 341 13 28 31 76 41 106
27 84 135 290 233 446 136 216 116 196 192 190 36 -3 254 -6 485 -6z m605
-525 c3 -247 4 -235 -19 -235 -10 0 -22 8 -27 18 -4 9 -10 175 -12 369 l-4
351 24 4 23 3 6 -160 c4 -88 7 -245 9 -350z m4922 225 c-2 -19 -8 -50 -13 -67
l-10 -33 -30 23 c-24 17 -43 22 -90 21 -67 -1 -99 -21 -99 -63 0 -20 -2 -23
-10 -11 -15 23 -13 157 3 164 6 2 66 4 132 3 l120 -2 -3 -35z m-518 22 c3 -5
1 -49 -4 -98 -11 -122 -4 -154 40 -177 29 -15 49 -17 116 -13 l82 6 6 -32 c9
-44 52 -98 95 -115 95 -40 241 30 241 116 0 18 6 20 64 18 52 -2 70 2 92 19
53 39 64 64 75 169 6 54 12 102 15 107 3 4 36 8 74 8 79 0 75 4 85 -105 7 -73
50 -351 65 -420 17 -77 69 -391 80 -485 6 -52 20 -149 30 -215 53 -339 59
-402 38 -402 -7 0 -358 -4 -780 -8 l-768 -7 0 28 c0 16 7 90 15 164 15 137 61
615 70 725 2 33 7 98 10 145 3 47 15 173 26 280 11 107 22 219 25 248 l5 52
99 0 c54 0 101 -4 104 -8z m490 -208 c21 -8 20 -56 -2 -84 -26 -32 -92 -38
-135 -11 -33 20 -64 68 -52 80 4 3 37 9 73 12 37 3 75 7 84 7 9 1 23 -1 32 -4z
m-3344 -179 l0 -155 -134 0 -134 0 -12 53 c-23 106 -23 169 -1 204 26 41 61
51 184 52 l97 1 0 -155z m400 -5 l0 -160 -125 0 -125 0 0 160 0 160 125 0 125
0 0 -160z m390 3 l0 -158 -120 0 -119 0 -3 158 -3 157 123 0 122 0 0 -157z
m390 3 l0 -155 -112 -3 c-62 -2 -116 -1 -121 3 -4 3 -4 73 0 157 l6 152 114 0
113 0 0 -154z m300 144 c0 -6 -13 -55 -29 -109 -16 -54 -32 -119 -36 -144 l-7
-47 -43 0 -43 0 4 123 c3 67 7 137 10 155 l5 32 69 0 c42 0 70 -4 70 -10z
m-4026 -41 c14 -11 31 -29 36 -40 10 -18 6 -19 -82 -19 l-93 1 44 39 c50 46
59 48 95 19z m240 -190 c11 -10 12 -379 1 -427 l-7 -32 84 0 c46 0 113 -3 151
-7 l67 -6 -2 -714 -2 -714 -22 -5 c-12 -3 -33 -4 -45 -2 -23 3 -24 7 -30 123
-4 66 -10 371 -14 678 l-8 557 -48 0 -49 0 0 -162 c0 -90 -1 -379 -3 -643 -1
-264 2 -495 7 -512 7 -30 6 -33 -17 -33 l-24 0 1 133 1 133 -37 72 -38 71 0
680 c0 747 5 691 -60 691 -19 0 -30 -6 -33 -17 -3 -10 -4 -300 -4 -646 1 -345
1 -627 -1 -627 -1 0 -20 9 -42 20 -22 11 -46 20 -55 20 -13 0 -15 50 -17 423
-1 232 -2 508 -3 612 -1 105 -4 196 -9 203 -4 7 -27 12 -51 12 l-43 0 5 -572
c3 -315 3 -599 -1 -631 -7 -50 -11 -59 -37 -72 -16 -9 -44 -29 -63 -45 l-34
-30 -6 663 c-3 364 -9 697 -12 739 l-6 77 63 3 c107 6 433 -4 443 -13z m2312
-264 c9 -65 -5 -255 -19 -255 -32 1 -97 42 -135 85 -29 33 -48 69 -62 114 -11
36 -23 74 -26 84 -5 15 5 17 115 17 l120 0 7 -45z m394 -105 l0 -150 -115 0
c-63 0 -117 0 -120 0 -2 0 -7 68 -10 150 l-5 150 125 0 125 0 0 -150z m390 -5
l0 -155 -115 0 -115 0 0 48 c0 27 -3 97 -7 155 l-6 107 121 0 122 0 0 -155z
m389 88 c-1 -38 -4 -106 -7 -153 l-7 -85 -107 0 -108 0 0 153 0 152 115 0 115
0 -1 -67z m196 55 c2 -7 -7 -53 -20 -103 l-25 -90 6 95 c3 52 8 98 11 102 7
12 23 9 28 -4z m-4267 -968 l-3 -741 -50 3 -50 3 -6 700 c-3 385 -7 701 -7
703 -1 1 -25 2 -53 2 l-52 0 5 -512 c2 -282 1 -600 -2 -706 -6 -213 -6 -212
-72 -212 l-38 0 0 750 0 750 166 0 166 0 -4 -740z m5296 521 c-5 -55 -11 -81
-20 -81 -7 0 -14 4 -16 10 -1 5 -21 11 -44 12 -34 3 -40 6 -36 22 3 10 13 21
24 23 10 3 18 9 18 13 0 4 13 10 30 13 21 5 28 11 24 22 -3 8 -1 15 5 15 6 0
11 10 11 22 0 12 2 19 5 16 3 -3 3 -42 -1 -87z m-994 -144 c0 -8 -10 -23 -22
-34 -21 -19 -26 -20 -53 -8 l-30 13 40 3 c26 1 32 3 17 6 -22 4 -23 5 -5 18
23 18 53 19 53 2z m200 -12 c0 -8 -9 -15 -20 -15 -22 0 -27 15 -7 23 21 9 27
7 27 -8z m-160 -76 c0 -6 -4 -7 -10 -4 -5 3 -10 11 -10 16 0 6 5 7 10 4 6 -3
10 -11 10 -16z m-2910 -51 c0 -15 -4 -30 -10 -33 -6 -4 -10 12 -10 42 0 35 3
44 10 33 5 -8 10 -27 10 -42z m1215 -10 c-48 -54 -51 -55 -50 -21 0 17 6 29
15 29 8 1 19 2 24 3 5 0 2 9 -5 19 -12 15 -12 16 2 4 13 -10 19 -9 29 3 7 9
15 13 18 11 3 -3 -12 -25 -33 -48z m-1198 -5 c-3 -10 -5 -2 -5 17 0 19 2 27 5
18 2 -10 2 -26 0 -35z m2933 35 c0 -4 -4 -8 -9 -8 -6 0 -12 4 -15 8 -3 5 1 9
9 9 8 0 15 -4 15 -9z m-1424 -87 c54 -33 84 -81 84 -136 0 -118 -121 -202
-218 -151 -31 16 -74 61 -91 93 -33 65 2 152 79 191 54 27 105 28 146 3z
m1251 2 c19 -9 49 -35 65 -57 26 -36 29 -47 26 -94 -16 -197 -299 -200 -325
-3 -4 32 0 49 21 85 45 78 135 107 213 69z m-392 -84 c4 -6 5 -12 2 -15 -7 -7
-627 -18 -627 -11 0 3 3 12 6 21 5 14 42 16 309 16 205 0 306 -3 310 -11z
m-1330 -10 l70 -1 -55 -8 c-79 -11 -678 -10 -620 1 25 5 56 7 70 4 14 -2 50 0
80 4 30 5 129 8 220 5 91 -2 197 -4 235 -5z m-850 -9 c-16 -4 -66 -8 -110 -8
-56 0 -71 3 -50 8 17 4 66 8 110 8 56 0 71 -3 50 -8z m3293 -7 c-71 -2 -185
-2 -255 0 -71 1 -13 3 127 3 140 0 198 -2 128 -3z m310 -134 c2 -5 39 -9 83
-9 58 0 79 -3 79 -13 0 -26 -42 -202 -55 -232 -7 -16 -21 -55 -31 -85 -9 -30
-32 -85 -50 -121 l-32 -65 -378 3 c-326 3 -688 -8 -701 -21 -3 -2 0 -12 6 -23
5 -10 12 -25 15 -34 7 -24 172 -32 629 -32 346 1 378 -1 372 -16 -12 -32 -97
-167 -130 -206 l-33 -40 -496 2 -496 2 -15 -23 c-16 -25 -11 -78 9 -95 13 -10
373 4 479 19 87 13 234 13 242 0 10 -16 -35 -67 -92 -107 -29 -20 -53 -38 -53
-40 0 -2 5 -1 10 2 6 4 18 1 27 -7 14 -11 15 -10 9 10 -5 13 -3 22 3 22 6 0
11 -8 11 -17 1 -17 1 -17 11 0 5 9 8 21 5 25 -3 4 4 13 15 20 11 7 19 8 19 2
0 -5 5 -10 11 -10 5 0 7 4 4 10 -3 5 -1 18 4 27 6 10 11 12 11 6 0 -16 30 -17
30 -1 0 6 3 9 6 5 9 -8 61 19 71 37 8 14 34 19 82 17 22 -1 23 -2 9 -18 -9
-10 -22 -30 -29 -44 -8 -15 -42 -57 -77 -95 l-63 -68 -267 -1 c-147 -1 -748
-3 -1336 -4 l-1069 -1 -39 25 c-44 29 -198 173 -198 185 0 4 439 8 975 9 618
1 985 5 1001 12 24 9 26 13 21 50 -3 22 -7 43 -10 45 -9 9 -1013 13 -1542 5
l-540 -7 -51 54 c-52 55 -151 208 -142 218 3 3 43 0 89 -6 48 -6 288 -10 561
-10 l477 0 21 27 c26 33 23 61 -10 83 -23 15 -73 15 -565 10 -380 -5 -548 -10
-569 -19 -37 -15 -47 -6 -85 74 -59 124 -110 292 -135 443 l-5 32 622 0 622 0
21 -49 c25 -55 79 -101 181 -152 57 -29 70 -31 128 -27 44 4 78 14 107 31 58
34 132 115 147 160 l13 37 328 0 329 0 7 -22 c33 -106 177 -201 304 -200 101
1 236 92 274 184 15 35 18 37 68 40 118 7 743 -4 746 -13z m497 -76 c-28 -185
-245 -794 -379 -1061 -69 -137 -288 -504 -373 -624 -96 -136 -210 -286 -257
-337 -28 -32 -99 -113 -157 -182 -59 -68 -135 -154 -170 -190 -99 -102 -368
-341 -454 -404 -22 -16 -71 -55 -110 -86 -38 -31 -97 -73 -130 -94 -33 -21
-91 -59 -130 -85 -341 -227 -753 -417 -1044 -480 -47 -10 -108 -23 -136 -29
-209 -44 -519 -54 -706 -21 -137 24 -351 81 -428 115 -31 13 -85 32 -120 40
-36 9 -81 25 -101 35 -49 25 -226 166 -271 217 -41 45 -104 169 -115 223 l-6
35 43 -50 c100 -114 173 -159 309 -190 101 -23 541 -33 702 -15 291 31 790
203 1213 417 83 42 167 87 188 100 21 13 98 59 172 102 74 44 181 111 237 151
57 39 142 97 190 128 234 153 565 428 801 666 381 383 625 693 799 1016 58
107 164 356 213 500 25 74 47 140 49 145 2 6 39 9 91 7 l87 -4 -7 -45z m1279
23 c3 -16 6 -74 6 -129 l0 -100 -22 20 c-55 49 -158 108 -227 130 -60 19 -100
25 -186 26 -124 1 -192 -15 -289 -66 -72 -38 -189 -153 -235 -231 -38 -64 -79
-192 -88 -277 -15 -145 56 -325 179 -455 39 -41 64 -74 57 -74 -8 0 -39 7 -69
15 -163 44 -318 38 -445 -16 -38 -17 -76 -33 -83 -36 -19 -8 -6 37 39 132 61
131 118 280 159 422 50 171 66 256 85 453 8 87 18 171 21 187 l5 28 544 0 543
0 6 -29z m-5891 -138 c-9 -15 -23 -8 -23 12 0 17 2 19 14 8 8 -7 12 -16 9 -20z
m47 2 c0 -5 -5 -10 -11 -10 -5 0 -7 5 -4 10 3 6 8 10 11 10 2 0 4 -4 4 -10z
m37 4 c-3 -3 -12 -4 -19 -1 -8 3 -5 6 6 6 11 1 17 -2 13 -5z m-807 -75 c116
-92 131 -232 37 -351 -16 -21 -96 -38 -172 -38 -48 0 -56 3 -84 35 -68 77 -81
136 -52 220 29 83 63 129 113 154 65 32 98 28 158 -20z m5420 -60 c-29 -115
-132 -432 -182 -559 -55 -142 -175 -387 -265 -544 -41 -71 -95 -170 -120 -220
-25 -50 -78 -134 -117 -187 -39 -53 -113 -152 -164 -222 -260 -354 -703 -817
-932 -974 -25 -17 -82 -59 -126 -94 -189 -148 -324 -235 -582 -373 -208 -111
-365 -180 -572 -252 -44 -16 -323 -93 -368 -103 -29 -6 -81 -11 -114 -11 -69
0 -188 18 -188 29 0 4 62 15 138 25 273 35 390 66 722 193 102 39 340 156 437
214 244 145 615 412 790 566 254 225 543 529 686 723 39 52 101 136 138 185
96 129 265 390 346 535 166 295 248 485 373 864 77 233 110 318 117 300 2 -7
-6 -49 -17 -95z m-4767 59 c-29 -31 -59 -38 -49 -12 3 9 6 22 6 30 0 10 10 13
34 11 l35 -2 -26 -27z m5618 22 c164 -31 317 -166 363 -320 20 -69 21 -217 1
-295 -40 -153 -144 -262 -310 -326 -27 -10 -56 -19 -62 -19 -10 0 -13 31 -13
124 l0 124 50 32 c27 17 64 48 81 68 33 37 64 100 55 110 -3 3 -36 -15 -73
-40 -38 -24 -81 -53 -96 -63 l-28 -18 2 172 c2 140 0 175 -12 182 -16 11 -68
4 -84 -12 -6 -6 -10 -69 -9 -160 0 -82 -1 -149 -3 -149 -12 0 -65 34 -102 64
-47 39 -71 45 -92 20 -28 -34 53 -129 151 -179 l51 -26 -6 -117 c-4 -64 -11
-121 -15 -125 -9 -10 -91 17 -164 56 -84 45 -159 125 -208 224 -37 74 -41 91
-46 176 -5 100 9 171 50 251 94 185 308 286 519 246z m-5415 -134 c24 -17 69
-113 78 -168 5 -30 4 -38 -8 -38 -24 0 -32 -119 -11 -164 14 -28 16 -50 11
-96 -5 -40 -3 -60 4 -60 5 0 10 -7 10 -15 0 -8 -8 -15 -17 -15 -45 1 -225 49
-243 65 -35 31 -74 169 -74 261 -1 67 3 88 25 129 36 70 97 115 158 115 25 0
56 -6 67 -14z m-387 -394 l44 -7 20 -69 c27 -97 28 -96 -174 -106 -156 -8
-315 -28 -417 -51 -26 -6 -110 -21 -187 -35 -187 -33 -270 -56 -365 -104 -43
-22 -81 -36 -84 -32 -6 10 -45 163 -55 218 l-8 42 91 31 c165 54 286 81 440
96 83 8 194 19 246 24 95 10 365 5 449 -7z m719 -176 c15 -29 3 -56 -24 -56
-20 0 -27 18 -19 56 7 41 24 41 43 0z m-456 -91 c99 -17 587 -176 626 -204 15
-10 43 -22 62 -26 53 -11 125 -50 230 -125 52 -37 123 -84 158 -104 34 -21 62
-41 62 -46 0 -5 -15 -12 -32 -15 -49 -11 -89 -33 -130 -72 l-36 -35 -94 39
c-51 22 -130 53 -175 68 l-83 28 0 76 c0 42 -5 93 -11 114 -16 59 -42 69 -186
75 -143 5 -143 6 -143 -73 l0 -49 -42 41 c-75 72 -110 78 -196 38 l-53 -25
-59 20 c-103 35 -470 24 -695 -21 -75 -15 -128 -34 -211 -74 -133 -65 -205
-120 -247 -186 -16 -27 -31 -48 -33 -47 -6 7 -74 199 -87 248 -32 117 -34 106
34 141 113 57 323 117 549 158 287 53 283 52 439 61 218 11 264 11 353 -5z
m5752 -272 c-11 -81 -45 -214 -73 -284 -16 -41 -41 -107 -57 -148 -47 -122
-54 -109 -54 102 0 101 3 211 6 244 l6 60 57 11 c31 7 67 21 81 32 35 27 39
25 34 -17z m-798 -7 c125 -38 262 -161 325 -291 89 -186 89 -345 -1 -534 -31
-65 -57 -100 -113 -155 -39 -39 -93 -81 -119 -94 -53 -26 -186 -63 -192 -53
-2 3 -4 69 -3 147 l0 140 50 29 c64 39 166 139 194 190 19 35 20 44 10 65 -8
15 -23 26 -38 28 -21 2 -31 -6 -56 -46 -30 -48 -95 -102 -140 -116 -23 -7 -23
-7 -24 106 -1 62 -4 151 -7 198 l-7 85 -33 3 c-63 6 -65 -1 -60 -210 3 -103 3
-190 0 -193 -12 -12 -125 62 -171 111 -51 55 -67 62 -102 44 -24 -13 -24 -31
1 -79 21 -42 146 -147 216 -181 l41 -21 5 -147 c3 -81 2 -151 -3 -156 -14 -16
-133 23 -211 69 -136 80 -236 213 -284 380 -21 75 -15 211 15 305 26 83 82
176 145 240 54 55 178 121 273 145 70 18 215 13 289 -9z m-1441 -5 c-6 -5 -26
-18 -45 -29 -19 -11 -64 -36 -98 -56 -35 -20 -68 -34 -72 -31 -5 3 -10 1 -12
-4 -1 -5 -10 -11 -18 -13 -8 -2 -17 -6 -20 -9 -17 -19 -240 -107 -370 -146
-142 -43 -197 -52 -406 -70 -175 -15 -223 -16 -360 -5 -284 22 -600 113 -814
233 -8 4 -42 22 -75 38 -33 17 -73 40 -90 52 l-30 21 40 -6 c22 -3 53 -6 69
-6 16 0 27 -3 23 -6 -7 -8 64 -69 105 -90 15 -8 28 -20 28 -26 0 -6 3 -9 6 -5
4 3 25 -3 47 -14 22 -12 56 -23 76 -25 123 -13 149 -18 181 -34 19 -9 55 -18
79 -19 24 0 60 -5 80 -10 20 -5 61 -12 91 -16 47 -6 101 -22 185 -56 56 -23
218 -18 405 12 36 6 94 12 130 14 39 2 85 12 115 25 28 12 61 22 75 22 14 0
36 6 50 13 14 7 43 15 65 19 56 10 98 25 188 68 43 21 88 38 101 38 14 0 30
10 40 25 9 14 22 25 28 25 6 0 19 7 29 16 37 34 208 88 174 55z m1833 -6 c15
-5 17 -81 2 -90 -6 -4 -36 19 -68 50 l-57 55 55 -6 c30 -3 61 -7 68 -9z
m-3007 -15 c754 0 777 -1 782 -19 3 -13 -3 -23 -21 -32 -15 -8 -51 -28 -81
-46 -139 -83 -363 -121 -761 -130 -209 -5 -275 -3 -365 11 -108 17 -335 77
-445 117 -109 41 -200 82 -194 88 7 8 227 19 274 15 19 -2 384 -4 811 -4z
m-1878 -52 c-2 -5 -3 -51 -3 -104 l0 -95 -37 27 c-58 42 -63 52 -63 121 l0 64
53 -3 c28 -2 51 -6 50 -10z m-640 -18 c26 -6 47 -16 47 -21 0 -4 -24 -24 -52
-44 -51 -34 -56 -35 -143 -35 -124 0 -255 -16 -328 -41 -176 -58 -359 -175
-457 -292 -30 -36 -59 -63 -63 -60 -17 10 -57 113 -57 144 0 44 150 191 246
241 109 56 256 97 424 118 93 11 319 5 383 -10z m335 -51 c32 -27 95 -76 142
-109 103 -71 290 -268 290 -306 0 -13 -3 -24 -6 -24 -4 0 -39 30 -78 68 -39
37 -118 105 -175 152 -57 47 -131 107 -163 133 -44 37 -65 47 -81 43 -25 -7
-172 -124 -326 -259 -118 -104 -171 -147 -183 -147 -4 0 -8 12 -8 28 0 21 17
44 77 101 145 138 418 370 436 370 11 1 44 -22 75 -50z m578 -194 c160 -84
147 -64 123 -186 -20 -102 -21 -231 -3 -327 l6 -33 -88 3 -89 3 -3 92 -3 92
29 15 c34 17 42 34 42 80 0 38 -28 83 -111 176 l-58 66 6 56 c5 54 7 56 22 38
9 -10 66 -44 127 -75z m-605 29 c13 -15 87 -79 164 -144 77 -65 155 -136 173
-159 19 -23 45 -47 59 -52 l26 -10 -6 -100 c-3 -55 -7 -102 -9 -104 -1 -1 -58
0 -126 3 l-123 5 2 110 3 111 -60 49 c-32 26 -77 58 -98 69 -55 28 -98 14
-176 -60 l-60 -58 0 -117 0 -118 -122 3 -123 3 -3 95 -3 96 93 91 c51 51 127
118 168 151 41 32 100 82 130 110 30 28 58 51 61 52 3 0 16 -12 30 -26z m1194
-3 c28 -11 82 -35 120 -55 94 -47 155 -68 385 -128 192 -50 197 -51 350 -52
85 -1 198 1 250 4 93 5 95 4 95 -17 0 -12 4 -25 7 -28 13 -13 -5 -35 -29 -35
-13 0 -22 -4 -18 -9 7 -12 -26 -8 -222 30 -150 28 -183 29 -183 5 0 -14 60
-43 255 -122 238 -97 250 -102 259 -118 13 -19 -6 -41 -63 -77 -47 -30 -61
-30 -61 2 0 12 -14 28 -35 40 -19 11 -37 28 -40 37 -3 11 -37 27 -93 45 -48
15 -93 27 -99 27 -6 0 -24 7 -39 15 -16 8 -39 15 -50 15 -12 0 -27 7 -34 15
-9 11 -15 12 -25 2 -10 -10 -9 -14 9 -21 21 -8 21 -8 1 -16 l-20 -9 20 0 c11
-1 16 -5 10 -9 -5 -4 -10 -13 -11 -19 -2 -30 -5 -33 -33 -33 -46 0 -255 56
-411 111 -80 28 -159 56 -177 61 -29 10 -33 16 -38 57 -12 86 -38 162 -69 204
-35 46 -68 97 -64 97 2 0 26 -9 53 -19z m-1685 5 c0 -3 -39 -44 -87 -93 -107
-109 -143 -158 -143 -194 0 -33 42 -87 73 -91 21 -3 22 -9 25 -94 l3 -92 -33
-5 c-49 -9 -461 -13 -474 -5 -16 10 -82 120 -89 149 -4 17 0 32 16 49 12 14
45 54 74 90 29 36 68 78 88 93 73 55 308 160 411 182 60 13 136 19 136 11z
m1518 -76 c61 -57 114 -168 111 -234 -2 -26 -2 -27 -6 -7 -4 19 -7 21 -14 10
-7 -11 -9 -9 -9 9 0 28 -30 30 -48 2 -7 -11 -21 -20 -31 -20 -24 0 -32 -39
-15 -76 10 -24 13 -25 13 -9 1 17 8 21 40 22 32 2 40 -2 49 -23 7 -13 16 -24
22 -24 5 0 10 -7 10 -16 0 -8 -5 -12 -11 -9 -6 4 -10 1 -8 -6 1 -8 1 -19 0
-26 -1 -16 -49 -71 -72 -84 -17 -9 -19 -7 -13 15 3 15 -1 34 -13 52 l-18 28
-5 -54 c-5 -53 -6 -55 -36 -58 -26 -3 -38 4 -69 40 -60 70 -69 94 -69 183 0
135 45 235 128 286 38 23 38 23 64 -1z m1431 -144 c-12 -10 -59 -15 -59 -6 0
5 14 10 32 10 17 0 29 -2 27 -4z m1501 -101 c0 -61 57 -246 80 -260 6 -3 29
-34 53 -67 23 -33 49 -70 57 -81 9 -13 10 -18 2 -13 -16 10 -41 -16 -53 -56
-6 -23 -6 -34 2 -37 6 -2 20 -12 30 -22 11 -11 26 -19 34 -19 8 0 15 -4 15
-10 0 -5 11 -10 24 -10 14 0 28 5 31 10 3 6 1 10 -4 10 -15 0 -13 11 4 33 13
18 15 18 44 1 17 -10 30 -21 28 -24 -1 -3 -20 -41 -41 -84 -39 -78 -117 -211
-161 -271 -136 -187 -190 -251 -350 -410 -152 -151 -215 -207 -368 -330 -72
-58 -97 -73 -113 -70 -10 2 -22 4 -27 4 -4 1 -6 15 -5 33 2 25 -1 33 -17 36
-11 2 -22 8 -25 12 -8 11 -70 21 -70 10 0 -5 -9 -7 -21 -5 -13 3 -32 -7 -52
-25 -18 -17 -37 -30 -43 -30 -6 0 -17 -7 -24 -15 -6 -8 -31 -25 -53 -38 -23
-13 -80 -48 -127 -77 -101 -62 -225 -125 -335 -171 -44 -18 -82 -35 -85 -39
-3 -4 -12 -7 -20 -7 -8 0 -67 -3 -130 -8 -80 -5 -112 -4 -105 3 6 6 55 31 111
55 55 24 161 78 235 121 118 69 186 114 382 254 26 18 45 38 41 43 -3 5 2 9
12 9 17 0 64 36 189 145 39 34 102 87 142 118 81 64 253 225 253 237 0 4 -8
10 -17 13 -10 4 -30 16 -44 28 -21 17 -30 19 -47 10 -26 -14 -62 -72 -62 -100
0 -11 -4 -21 -8 -21 -5 0 -49 -27 -99 -59 -50 -33 -104 -66 -120 -74 -15 -8
-44 -32 -63 -52 -88 -94 -210 -199 -261 -225 -24 -12 -67 -39 -94 -60 -28 -21
-84 -55 -125 -76 -41 -20 -87 -45 -101 -55 -50 -35 -264 -155 -319 -178 -30
-13 -77 -34 -105 -46 -56 -26 -166 -57 -268 -76 -60 -11 -80 -11 -160 5 -51 9
-126 20 -167 24 l-75 7 47 22 c25 11 72 28 105 38 99 28 405 150 513 205 36
18 97 51 135 73 39 22 102 58 140 80 225 128 555 374 821 612 304 272 547 557
754 883 36 56 68 102 72 102 5 0 8 -16 8 -35z m-2813 -82 c-3 -10 -5 -4 -5 12
0 17 2 24 5 18 2 -7 2 -21 0 -30z m-1123 -5 c3 -13 6 -53 6 -90 l0 -68 -60 0
-60 0 0 84 c0 93 0 93 71 95 30 1 38 -3 43 -21z m1336 -42 c42 -15 75 -41 123
-96 9 -11 17 -22 17 -24 0 -3 -54 -6 -121 -8 l-121 -3 6 45 c16 119 17 120 34
110 9 -4 37 -15 62 -24z m890 -176 c0 -5 17 -11 38 -11 20 -1 29 -3 20 -6 -10
-2 -18 -9 -18 -14 0 -6 -15 -9 -32 -7 -25 2 -34 8 -36 26 -2 15 2 22 12 22 9
0 16 -4 16 -10z m-43 -16 c-3 -3 -12 -4 -19 -1 -8 3 -5 6 6 6 11 1 17 -2 13
-5z m-1492 -65 c105 -5 278 -16 385 -25 107 -8 285 -19 395 -24 209 -10 357
-30 405 -55 16 -8 52 -20 79 -26 61 -13 72 -25 34 -40 -15 -6 -37 -19 -48 -28
-22 -20 -224 -124 -264 -136 -13 -4 -35 -20 -47 -35 -14 -16 -61 -44 -111 -65
l-88 -38 -110 26 c-60 14 -114 22 -118 18 -8 -8 0 -17 66 -74 21 -19 24 -27
15 -34 -26 -20 -62 -21 -107 -4 -25 10 -86 26 -136 35 -154 30 -215 46 -361
92 -303 95 -389 108 -709 109 -203 0 -267 -3 -340 -18 -88 -18 -324 -72 -357
-83 -24 -7 -81 47 -185 176 -119 149 -118 144 -30 164 40 9 108 23 152 31 275
47 946 63 1480 34z m4718 -146 c23 -22 22 -78 -3 -103 -31 -31 -102 -28 -129
6 -26 33 -26 54 -1 87 31 39 94 44 133 10z m-497 -89 c-3 -8 0 -14 7 -14 8 0
6 -4 -3 -10 -8 -5 -10 -10 -5 -10 7 0 7 -3 0 -8 -6 -4 -22 -23 -37 -43 -26
-36 -82 -68 -95 -55 -4 3 -9 33 -11 66 -4 58 -4 59 24 65 16 4 45 13 64 20 39
14 64 9 56 -11z m-386 -34 c0 -5 -2 -10 -4 -10 -3 0 -8 5 -11 10 -3 6 -1 10 4
10 6 0 11 -4 11 -10z m-4165 -174 c125 -25 314 -88 385 -128 23 -13 55 -31 72
-40 17 -9 59 -20 94 -23 35 -4 64 -11 64 -14 0 -11 -215 -79 -340 -107 -118
-27 -234 -43 -285 -39 -16 1 -54 3 -84 3 -88 3 -55 9 75 15 75 4 138 12 165
22 24 9 65 18 92 20 54 4 67 10 67 30 0 9 -18 15 -57 20 -97 10 -214 25 -308
40 -134 22 -269 19 -420 -9 -71 -14 -149 -31 -172 -40 -64 -23 -100 -9 -206
76 -36 29 -73 58 -83 64 -18 11 -18 12 0 33 26 29 157 69 301 92 174 27 470
20 640 -15z m4508 -80 c15 -12 17 -28 15 -127 l-3 -114 -46 -3 -46 -3 -7 38
c-3 21 -6 80 -6 131 l0 92 38 0 c20 0 45 -7 55 -14z m-336 -63 c-3 -10 -5 -4
-5 12 0 17 2 24 5 18 2 -7 2 -21 0 -30z m-15 -55 c-8 -8 -9 -4 -5 13 4 13 8
18 11 10 2 -7 -1 -18 -6 -23z m763 -213 c39 -38 27 -102 -22 -124 -78 -36
-153 76 -87 128 36 28 79 27 109 -4z m-389 -158 c8 -8 14 -102 19 -284 l7
-272 -25 -25 c-31 -31 -70 -33 -97 -6 -19 19 -20 33 -20 293 0 149 4 277 8
283 22 33 81 39 108 11z m-387 -192 c36 -18 57 -65 42 -94 -30 -54 -97 -67
-130 -25 -29 37 -26 70 8 105 34 33 41 35 80 14z m-1616 -332 c-7 -2 -19 -2
-25 0 -7 3 -2 5 12 5 14 0 19 -2 13 -5z"/>
<path d="M6960 6235 c0 -3 17 -20 38 -40 46 -43 78 -46 85 -8 9 46 0 53 -64
53 -32 0 -59 -2 -59 -5z"/>
<path d="M2497 7250 c-43 -13 -96 -58 -128 -108 -34 -54 -39 -132 -13 -185 21
-41 81 -104 118 -124 43 -22 113 -20 171 6 63 28 82 45 111 103 45 89 26 178
-57 258 -56 55 -128 72 -202 50z m124 -139 c49 -49 38 -126 -20 -151 -44 -18
-95 -5 -125 31 -30 35 -31 39 -12 83 29 70 105 88 157 37z"/>
<path d="M2930 5380 c0 -11 6 -20 14 -20 9 0 14 9 13 20 -1 11 -7 20 -14 20
-7 0 -13 -9 -13 -20z"/>
<path d="M8530 6105 c0 -14 5 -25 10 -25 6 0 10 11 10 25 0 14 -4 25 -10 25
-5 0 -10 -11 -10 -25z"/>
<path d="M8536 6028 c-21 -65 -10 -155 14 -118 5 8 10 22 11 30 0 10 3 8 9 -5
8 -18 9 -18 9 -2 1 10 -5 20 -13 23 -8 3 -12 17 -9 39 3 33 -13 59 -21 33z"/>
<path d="M8520 5825 c0 -8 -16 -22 -36 -30 -42 -17 -58 -19 -49 -5 3 5 -14 1
-37 -10 -62 -27 -138 -37 -368 -51 -113 -6 -209 -16 -215 -21 -6 -5 14 -7 50
-4 33 3 50 3 38 0 -23 -5 -27 -15 -37 -86 -3 -25 0 -43 10 -52 8 -8 14 -19 14
-24 0 -6 6 -13 13 -15 7 -3 4 -7 -8 -8 -11 -2 160 -6 380 -9 220 -3 408 -9
418 -14 14 -7 16 -5 11 10 -4 11 -16 29 -27 41 -12 13 -21 39 -22 65 -5 69
-21 139 -35 148 -7 4 -9 13 -6 19 4 6 -1 22 -11 36 -21 28 -83 36 -83 10z
m-393 -111 c-3 -3 -12 -4 -19 -1 -8 3 -5 6 6 6 11 1 17 -2 13 -5z"/>
<path d="M7430 5750 c8 -5 22 -10 30 -10 13 0 13 1 0 10 -8 5 -22 10 -30 10
-13 0 -13 -1 0 -10z"/>
<path d="M7591 5701 c-9 -6 9 -7 50 -4 35 3 66 7 68 9 10 9 -105 3 -118 -5z"/>
<path d="M7340 5595 c-59 -29 -90 -51 -98 -69 -11 -25 -11 -26 16 -20 15 4 30
12 34 18 22 34 34 46 45 46 15 0 102 53 103 63 0 12 -12 8 -100 -38z"/>
<path d="M4578 6233 c12 -2 32 -2 45 0 12 2 2 4 -23 4 -25 0 -35 -2 -22 -4z"/>
<path d="M6930 5060 c0 -12 94 -12 130 0 17 6 2 8 -52 9 -46 1 -78 -3 -78 -9z"/>
<path d="M4782 4808 c-7 -7 -12 -27 -12 -44 0 -65 -11 -64 540 -64 548 1 530
-1 530 64 0 30 -5 38 -26 46 -39 15 -1017 13 -1032 -2z"/>
<path d="M6357 4179 c4 -13 8 -18 11 -10 2 7 -1 18 -6 23 -8 8 -9 4 -5 -13z"/>
<path d="M4470 2015 c0 -8 4 -15 9 -15 5 0 11 7 15 15 3 9 0 15 -9 15 -8 0
-15 -7 -15 -15z"/>
<path d="M4370 1990 c-8 -5 -53 -18 -100 -30 -46 -12 -87 -25 -90 -29 -7 -10
-60 -25 -82 -22 -10 1 -18 -3 -18 -8 0 -6 14 -11 30 -11 17 0 30 4 30 8 0 5
14 7 30 4 19 -3 30 0 30 7 0 7 4 10 9 7 5 -4 11 -3 13 1 4 11 99 43 125 43 34
0 76 22 61 32 -16 9 -19 9 -38 -2z"/>
<path d="M3191 1949 c27 -5 82 -5 130 0 l84 8 -130 1 c-104 0 -121 -2 -84 -9z"/>
<path d="M4028 1893 c7 -3 16 -2 19 1 4 3 -2 6 -13 5 -11 0 -14 -3 -6 -6z"/>
<path d="M3887 1869 c13 -13 38 -13 83 -1 32 9 30 10 -29 11 -46 1 -62 -2 -54
-10z"/>
<path d="M2146 4837 c-39 -57 -43 -69 -23 -86 28 -22 59 24 42 62 -5 11 -3 23
5 30 10 10 11 7 6 -13 -7 -24 -7 -24 9 -5 9 11 12 21 6 23 -5 2 -7 12 -4 22 8
32 -2 23 -41 -33z"/>
<path d="M3051 4780 l1 -45 8 35 c5 20 5 39 -1 45 -5 5 -9 -8 -8 -35z"/>
<path d="M3294 3391 c20 -22 26 -25 26 -13 0 4 -10 13 -22 21 -23 14 -23 14
-4 -8z"/>
<path d="M6841 2905 c-34 -42 -61 -82 -61 -88 0 -7 20 -24 45 -39 l45 -27 55
82 c30 45 55 87 55 94 0 6 -13 14 -30 18 -16 4 -28 11 -27 17 1 6 -3 12 -10
15 -6 2 -39 -30 -72 -72z"/>
<path d="M6591 2575 c-29 -34 -40 -65 -23 -65 14 0 44 -61 38 -78 -3 -9 13 3
35 28 58 62 95 124 72 118 -5 -1 -22 6 -40 15 -43 23 -46 22 -82 -18z"/>
<path d="M6203 1803 c9 -2 23 -2 30 0 6 3 -1 5 -18 5 -16 0 -22 -2 -12 -5z"/>
<path d="M6351 1793 c-1 -13 37 -38 46 -29 9 9 -9 27 -22 22 -8 -3 -16 0 -19
7 -3 9 -5 9 -5 0z"/>
<path d="M6334 1738 c-5 -8 -2 -9 9 -5 10 3 17 2 17 -3 0 -5 7 -7 15 -3 19 7
12 16 -15 20 -10 1 -22 -2 -26 -9z"/>
<path d="M6300 1729 c0 -5 5 -7 10 -4 6 3 10 8 10 11 0 2 -4 4 -10 4 -5 0 -10
-5 -10 -11z"/>
<path d="M4755 1495 l-30 -14 30 6 c17 3 34 10 40 14 14 13 -5 10 -40 -6z"/>
<path d="M4635 1450 c-3 -6 1 -7 9 -4 18 7 21 14 7 14 -6 0 -13 -4 -16 -10z"/>
</g>
</svg>
